<svg width="14" height="9" viewBox="0 0 14 9" fill="none" xmlns="http://www.w3.org/2000/svg">
<path d="M13.667 1.0651C13.7598 0.739583 13.667 0.5 13.2207 0.5H11.7436C11.3675 0.5 11.1944 0.705729 11.1017 0.934896C11.1017 0.934896 10.3493 2.83854 9.28607 4.07292C8.94251 4.42969 8.78452 4.54427 8.59644 4.54427C8.50366 4.54427 8.36072 4.42969 8.36072 4.10417V1.0651C8.36072 0.674479 8.2554 0.5 7.94444 0.5H5.62229C5.38657 0.5 5.24614 0.682292 5.24614 0.851562C5.24614 1.22135 5.77777 1.30729 5.83294 2.34896V4.60937C5.83294 5.10417 5.74768 5.19531 5.5596 5.19531C5.05806 5.19531 3.83931 3.28385 3.11709 1.09635C2.97164 0.671875 2.8287 0.5 2.45003 0.5H0.972989C0.551693 0.5 0.466431 0.705729 0.466431 0.934896C0.466431 1.34115 0.967974 3.35938 2.80111 6.02604C4.02237 7.84635 5.74266 8.83333 7.30748 8.83333C8.24787 8.83333 8.36323 8.61458 8.36323 8.23698C8.36323 6.4974 8.27797 6.33333 8.74942 6.33333C8.96759 6.33333 9.34374 6.44792 10.2214 7.32552C11.2245 8.36719 11.39 8.83333 11.9518 8.83333H13.4288C13.8501 8.83333 14.0633 8.61458 13.9404 8.18229C13.6595 7.27344 11.7612 5.40365 11.6759 5.27865C11.4577 4.98698 11.5204 4.85677 11.6759 4.59635C11.6784 4.59375 13.4815 1.95833 13.667 1.0651Z" fill="white"/>
</svg>
