<?xml version="1.0" encoding="utf-8"?><svg viewBox="0 0 14 14" xmlns="http://www.w3.org/2000/svg" xmlns:xlink="http://www.w3.org/1999/xlink"><style>:root>svg{display:none}:root>svg:target{display:block}</style><svg viewBox="0 0 8 12" id="fb" xmlns="http://www.w3.org/2000/svg"><path d="M6.979 6.75l.355-2.172H5.111V3.17c0-.594.31-1.173 1.306-1.173h1.01V.146S6.512 0 5.635 0c-1.83 0-3.027 1.04-3.027 2.923v1.655H.572V6.75h2.035V12h2.504V6.75H6.98z"/></svg><svg viewBox="0 0 14 14" id="fb2" xmlns="http://www.w3.org/2000/svg"><path d="M13.458 6.778A6.457 6.457 0 007 .319 6.457 6.457 0 00.542 6.778a6.46 6.46 0 005.449 6.38V8.645H4.35V6.778h1.64V5.355c0-1.619.963-2.513 2.44-2.513a9.94 9.94 0 011.445.126v1.589H9.06c-.802 0-1.052.498-1.052 1.009v1.212H9.8l-.286 1.867H8.009v4.513a6.46 6.46 0 005.45-6.38z"/></svg><svg viewBox="0 0 14 14" id="inst" xmlns="http://www.w3.org/2000/svg"><path d="M7.003 3.419a3.414 3.414 0 00-3.42 3.42 3.414 3.414 0 003.42 3.419 3.414 3.414 0 003.42-3.42 3.414 3.414 0 00-3.42-3.42zm0 5.643A2.227 2.227 0 014.78 6.838c0-1.226.997-2.223 2.223-2.223s2.223.997 2.223 2.223-1 2.224-2.223 2.224zm4.357-5.783a.796.796 0 01-.797.797.798.798 0 11.798-.798zm2.265.81c-.05-1.07-.295-2.016-1.077-2.795C11.768.514 10.82.27 9.753.216 8.652.154 5.351.154 4.25.216c-1.065.05-2.012.295-2.795 1.075C.673 2.07.432 3.017.378 4.085c-.063 1.101-.063 4.402 0 5.503.05 1.069.295 2.015 1.077 2.795.783.78 1.727 1.024 2.795 1.077 1.101.063 4.402.063 5.503 0 1.068-.05 2.015-.294 2.795-1.077.78-.78 1.023-1.726 1.077-2.795.063-1.1.063-4.399 0-5.5zm-1.423 6.68a2.25 2.25 0 01-1.268 1.269c-.877.348-2.96.268-3.931.268-.97 0-3.057.077-3.932-.268a2.251 2.251 0 01-1.267-1.268c-.349-.878-.268-2.961-.268-3.932 0-.97-.078-3.056.268-3.931A2.25 2.25 0 013.07 1.639c.878-.348 2.962-.268 3.932-.268.97 0 3.056-.077 3.931.268a2.25 2.25 0 011.268 1.268c.349.878.268 2.961.268 3.931 0 .97.08 3.057-.268 3.932z"/></svg><svg viewBox="0 0 12 12" id="share" xmlns="http://www.w3.org/2000/svg"><path d="M11.805 4.45L7.68.886a.563.563 0 00-.93.426v1.876C2.985 3.232 0 3.987 0 7.555c0 1.44.928 2.866 1.953 3.612.32.233.776-.06.658-.437-1.063-3.398.504-4.3 4.139-4.353v2.06c0 .486.57.738.93.426l4.125-3.562a.563.563 0 000-.852z"/></svg><svg viewBox="0 0 14 12" id="twitt" xmlns="http://www.w3.org/2000/svg"><path d="M12.296 2.95c.009.12.009.238.009.356 0 3.613-2.75 7.775-7.775 7.775A7.722 7.722 0 01.333 9.855c.22.025.432.033.66.033a5.473 5.473 0 003.393-1.167A2.737 2.737 0 011.83 6.826a2.904 2.904 0 001.235-.051 2.733 2.733 0 01-2.19-2.682V4.06c.364.203.787.33 1.235.347A2.73 2.73 0 011.264.751a7.767 7.767 0 005.634 2.86 3.084 3.084 0 01-.067-.626A2.731 2.731 0 019.563.252c.787 0 1.498.33 1.997.863a5.38 5.38 0 001.734-.66 2.726 2.726 0 01-1.201 1.506 5.479 5.479 0 001.574-.423 5.874 5.874 0 01-1.37 1.413z"/></svg><svg viewBox="0 0 14 9" id="vk" xmlns="http://www.w3.org/2000/svg"><path d="M13.667 1.065c.093-.325 0-.565-.446-.565h-1.477c-.377 0-.55.206-.642.435 0 0-.753 1.904-1.816 3.138-.343.357-.501.471-.69.471-.092 0-.235-.114-.235-.44V1.065C8.36.675 8.255.5 7.944.5H5.622a.362.362 0 00-.376.352c0 .37.532.455.587 1.497v2.26c0 .495-.085.586-.273.586-.502 0-1.72-1.911-2.443-4.099C2.972.672 2.83.5 2.45.5H.973C.552.5.466.706.466.935c0 .406.502 2.424 2.335 5.091 1.221 1.82 2.942 2.807 4.506 2.807.94 0 1.056-.218 1.056-.596 0-1.74-.085-1.904.386-1.904.219 0 .595.115 1.472.993 1.004 1.041 1.169 1.507 1.73 1.507h1.478c.421 0 .634-.218.511-.65-.28-.91-2.179-2.78-2.264-2.904-.218-.292-.156-.422 0-.683.002-.002 1.806-2.638 1.991-3.53z"/></svg></svg>